REM DIRINDEX 1\2,1\3,1\4,1\5
REM DIRNAME folder01,folder02,folder03,folder04,folder05
TITLE ""
FILE "1800_125.mp3" MP3
  TRACK 01 AUDIO
    TITLE "2:cjc044_3661"
    INDEX 01 00:00:00
  TRACK 02 AUDIO
    TITLE "0:"
    INDEX 01 00:00:74
  TRACK 03 AUDIO
    TITLE "3:cjc044_3662"
    INDEX 01 00:01:64
  TRACK 04 AUDIO
    TITLE "0:"
    INDEX 01 00:02:53
  TRACK 05 AUDIO
    TITLE "4:cjc044_3663"
    INDEX 01 00:03:35
  TRACK 06 AUDIO
    TITLE "0:"
    INDEX 01 00:04:44
  TRACK 07 AUDIO
    TITLE "5:cjc044_3664"
    INDEX 01 00:05:30
  TRACK 08 AUDIO
    TITLE "0:"
    INDEX 01 00:08:24
  TRACK 09 AUDIO
    TITLE "2:cjc044_3665"
    INDEX 01 00:10:06
  TRACK 10 AUDIO
    TITLE "0:"
    INDEX 01 00:11:23
  TRACK 11 AUDIO
    TITLE "3:cjc044_3666"
    INDEX 01 00:12:12
  TRACK 12 AUDIO
    TITLE "0:"
    INDEX 01 00:13:30
  TRACK 13 AUDIO
    TITLE "4:cjc044_3667"
    INDEX 01 00:14:13
  TRACK 14 AUDIO
    TITLE "0:"
    INDEX 01 00:15:32
  TRACK 15 AUDIO
    TITLE "5:cjc044_3668"
    INDEX 01 00:16:08
  TRACK 16 AUDIO
    TITLE "0:"
    INDEX 01 00:19:44
  TRACK 17 AUDIO
    TITLE "2:cjc044_3669"
    INDEX 01 00:21:31
  TRACK 18 AUDIO
    TITLE "0:"
    INDEX 01 00:22:42
  TRACK 19 AUDIO
    TITLE "3:cjc044_3670"
    INDEX 01 00:23:28
  TRACK 20 AUDIO
    TITLE "0:"
    INDEX 01 00:24:53
  TRACK 21 AUDIO
    TITLE "4:cjc044_3671"
    INDEX 01 00:25:33
  TRACK 22 AUDIO
    TITLE "0:"
    INDEX 01 00:26:42
  TRACK 23 AUDIO
    TITLE "5:cjc044_3672"
    INDEX 01 00:27:14
  TRACK 24 AUDIO
    TITLE "0:"
    INDEX 01 00:30:20
  TRACK 25 AUDIO
    TITLE "2:cjc044_3673"
    INDEX 01 00:32:05
  TRACK 26 AUDIO
    TITLE "0:"
    INDEX 01 00:33:22
  TRACK 27 AUDIO
    TITLE "3:cjc044_3674"
    INDEX 01 00:34:10
  TRACK 28 AUDIO
    TITLE "0:"
    INDEX 01 00:36:44
  TRACK 29 AUDIO
    TITLE "4:cjc044_3675"
    INDEX 01 00:37:28
  TRACK 30 AUDIO
    TITLE "0:"
    INDEX 01 00:38:41
  TRACK 31 AUDIO
    TITLE "5:cjc044_3676"
    INDEX 01 00:39:21
  TRACK 32 AUDIO
    TITLE "0:"
    INDEX 01 00:42:02
  TRACK 33 AUDIO
    TITLE "2:cjc044_3677"
    INDEX 01 00:43:64
  TRACK 34 AUDIO
    TITLE "0:"
    INDEX 01 00:45:06
  TRACK 35 AUDIO
    TITLE "3:cjc044_3678"
    INDEX 01 00:45:69
  TRACK 36 AUDIO
    TITLE "0:"
    INDEX 01 00:46:68
  TRACK 37 AUDIO
    TITLE "4:cjc044_3679"
    INDEX 01 00:47:58
  TRACK 38 AUDIO
    TITLE "0:"
    INDEX 01 00:48:71
  TRACK 39 AUDIO
    TITLE "5:cjc044_3680"
    INDEX 01 00:49:63
  TRACK 40 AUDIO
    TITLE "0:"
    INDEX 01 00:53:29
  TRACK 41 AUDIO
    TITLE "2:cjc044_3681"
    INDEX 01 00:55:16
  TRACK 42 AUDIO
    TITLE "0:"
    INDEX 01 00:56:29
  TRACK 43 AUDIO
    TITLE "3:cjc044_3682"
    INDEX 01 00:57:15
  TRACK 44 AUDIO
    TITLE "0:"
    INDEX 01 00:58:11
  TRACK 45 AUDIO
    TITLE "4:cjc044_3683"
    INDEX 01 00:58:71
  TRACK 46 AUDIO
    TITLE "0:"
    INDEX 01 01:00:08
  TRACK 47 AUDIO
    TITLE "5:cjc044_3684"
    INDEX 01 01:00:55
  TRACK 48 AUDIO
    TITLE "0:"
    INDEX 01 01:03:53
  TRACK 49 AUDIO
    TITLE "2:cjc044_3685"
    INDEX 01 01:05:44
  TRACK 50 AUDIO
    TITLE "0:"
    INDEX 01 01:07:02
  TRACK 51 AUDIO
    TITLE "3:cjc044_3686"
    INDEX 01 01:07:59
  TRACK 52 AUDIO
    TITLE "0:"
    INDEX 01 01:09:05
  TRACK 53 AUDIO
    TITLE "4:cjc044_3687"
    INDEX 01 01:09:61
  TRACK 54 AUDIO
    TITLE "0:"
    INDEX 01 01:11:21
  TRACK 55 AUDIO
    TITLE "5:cjc044_3688"
    INDEX 01 01:11:68
  TRACK 56 AUDIO
    TITLE "0:"
    INDEX 01 01:15:72
  TRACK 57 AUDIO
    TITLE "2:cjc044_3689"
    INDEX 01 01:17:59
  TRACK 58 AUDIO
    TITLE "0:"
    INDEX 01 01:19:03
  TRACK 59 AUDIO
    TITLE "3:cjc044_3690"
    INDEX 01 01:19:58
  TRACK 60 AUDIO
    TITLE "0:"
    INDEX 01 01:20:71
  TRACK 61 AUDIO
    TITLE "4:cjc044_3691"
    INDEX 01 01:21:59
  TRACK 62 AUDIO
    TITLE "0:"
    INDEX 01 01:23:05
  TRACK 63 AUDIO
    TITLE "5:cjc044_3692"
    INDEX 01 01:23:56
  TRACK 64 AUDIO
    TITLE "0:"
    INDEX 01 01:27:32
  TRACK 65 AUDIO
    TITLE "2:cjc044_3693"
    INDEX 01 01:29:25
  TRACK 66 AUDIO
    TITLE "0:"
    INDEX 01 01:30:32
  TRACK 67 AUDIO
    TITLE "3:cjc044_3694"
    INDEX 01 01:31:20
  TRACK 68 AUDIO
    TITLE "0:"
    INDEX 01 01:32:08
  TRACK 69 AUDIO
    TITLE "4:cjc044_3695"
    INDEX 01 01:32:70
  TRACK 70 AUDIO
    TITLE "0:"
    INDEX 01 01:34:03
  TRACK 71 AUDIO
    TITLE "5:cjc044_3696"
    INDEX 01 01:34:65
  TRACK 72 AUDIO
    TITLE "0:"
    INDEX 01 01:37:62
  TRACK 73 AUDIO
    TITLE "2:cjc044_3697"
    INDEX 01 01:39:51
  TRACK 74 AUDIO
    TITLE "0:"
    INDEX 01 01:40:72
  TRACK 75 AUDIO
    TITLE "3:cjc044_3698"
    INDEX 01 01:41:54
  TRACK 76 AUDIO
    TITLE "0:"
    INDEX 01 01:42:41
  TRACK 77 AUDIO
    TITLE "4:cjc044_3699"
    INDEX 01 01:43:21
  TRACK 78 AUDIO
    TITLE "0:"
    INDEX 01 01:44:38
  TRACK 79 AUDIO
    TITLE "5:cjc044_3700"
    INDEX 01 01:45:22
  TRACK 80 AUDIO
    TITLE "0:"
    INDEX 01 01:48:54
